<svg width="81" height="81" viewBox="0 0 81 81" fill="none" xmlns="http://www.w3.org/2000/svg">
<g clip-path="url(#clip0_2_161)">
<path d="M18.2539 57.5026C17.3721 57.5026 16.5645 57.5026 15.698 57.5026C15.698 56.6173 15.698 55.7931 15.698 54.8707C15.9905 54.8707 16.2786 54.8707 16.5689 54.8707C21.8794 54.8707 27.1899 54.8816 32.4982 54.8685C39.5876 54.8489 45.3762 50.0714 46.7665 43.1177C48.3468 35.2089 42.591 27.25 34.5762 26.2797C33.7948 26.1859 33.0024 26.1379 32.2167 26.1358C27.0153 26.1227 21.8139 26.1292 16.6125 26.1292C16.3179 26.1292 16.0254 26.1292 15.6849 26.1292C15.6849 25.2614 15.6849 24.4546 15.6849 23.5584C16.4881 23.5584 17.3154 23.5584 18.2517 23.5584C18.2517 23.1833 18.2517 22.8955 18.2517 22.6077C18.2517 17.3831 18.2496 12.1564 18.2517 6.93188C18.2539 2.78452 21.0172 0.00434523 25.1491 0.00434523C41.4648 -1.58163e-05 57.7761 -1.58162e-05 74.0874 0.00216471C78.2236 0.00216471 80.9956 2.77579 80.9978 6.91879C81 29.3172 81 51.7155 80.9978 74.1117C80.9978 78.2024 78.2149 80.9934 74.1354 80.9956C57.7979 81 41.4582 81 25.1207 80.9956C21.0412 80.9956 18.2627 78.2024 18.2583 74.1139C18.2539 68.8893 18.2561 63.6626 18.2561 58.4381C18.2539 58.1459 18.2539 57.8537 18.2539 57.5026ZM20.8688 23.517C21.2617 23.517 21.5542 23.517 21.8488 23.517C25.3608 23.517 28.8749 23.4908 32.3869 23.5322C33.5787 23.5475 34.7835 23.6478 35.9556 23.8593C44.7934 25.4663 51.0184 34.4719 49.4032 43.2616C47.8513 51.7068 40.9671 57.4634 32.3869 57.483C28.8466 57.4895 25.3062 57.4852 21.7681 57.4852C21.4821 57.4852 21.194 57.4852 20.8688 57.4852C20.8688 57.8188 20.8688 58.0347 20.8688 58.2484C20.8688 63.5558 20.8644 68.861 20.871 74.1684C20.8732 76.7632 22.5058 78.3855 25.1141 78.3855C37.9659 78.3877 50.8198 78.3877 63.6716 78.3855C66.2842 78.3855 67.9235 76.7654 67.9256 74.1771C67.9278 51.7264 67.9278 29.2735 67.9256 6.82285C67.9256 4.26073 66.2973 2.6188 63.7523 2.6188C50.846 2.61443 37.9375 2.61443 25.0312 2.6188C22.532 2.6188 20.8797 4.26727 20.871 6.75307C20.8622 9.23015 20.8688 11.705 20.8688 14.1821C20.8688 17.2523 20.8688 20.3247 20.8688 23.517ZM69.2418 2.62098C70.1433 3.99253 70.5492 5.35972 70.5492 6.87518C70.5383 29.2953 70.5383 51.7155 70.5471 74.1357C70.5471 75.5072 70.2393 76.7698 69.5168 77.9363C69.4426 78.0563 69.4055 78.2002 69.3291 78.3855C70.8788 78.3855 72.3478 78.3855 73.8167 78.3855C76.8813 78.3855 78.3851 76.8875 78.3851 73.8391C78.3851 51.6087 78.3851 29.3804 78.3851 7.14993C78.3851 6.8512 78.3939 6.55028 78.372 6.25155C78.2345 4.31088 76.6477 2.69947 74.7029 2.63406C72.9349 2.57518 71.1648 2.62098 69.2418 2.62098Z" fill="#FFBB41"/>
<path d="M26.116 52.4439C26.116 44.3846 26.116 36.6307 26.116 28.7873C29.4315 28.6892 32.7449 28.4624 35.7766 30.2439C38.577 31.8924 40.4738 34.2496 41.3534 37.3873C43.1061 43.628 39.4152 50.2175 33.0657 51.7897C30.8656 52.337 28.5017 52.2389 26.116 52.4439ZM28.7462 49.6266C32.8867 49.8447 36.1324 48.4099 38.0685 44.7662C39.8954 41.3275 39.5505 37.9128 37.1605 34.8339C35.0454 32.1105 32.1403 31.1314 28.7462 31.3931C28.7462 37.5029 28.7462 43.5277 28.7462 49.6266Z" fill="#FFBB41"/>
<path d="M9.13897 31.356C9.13897 30.4424 9.13897 29.6378 9.13897 28.7416C10.7956 28.7416 12.4217 28.7307 14.0457 28.7459C15.3509 28.7568 16.6758 28.6631 17.9571 28.8593C20.6505 29.2736 22.4469 30.8828 23.2087 33.4929C23.9661 36.0899 23.1934 38.3119 21.2508 40.1544C21.1526 40.2482 21.0478 40.3332 20.7444 40.6014C20.9801 40.7366 21.2202 40.8195 21.3883 40.9787C23.3724 42.8343 23.9988 45.5665 23.0319 48.0785C22.0758 50.5621 19.7316 52.2193 17.0425 52.2498C14.432 52.2803 11.8237 52.2564 9.16079 52.2564C9.16079 51.382 9.16079 50.5577 9.16079 49.6463C10.1779 49.6463 11.1776 49.6463 12.1773 49.6463C13.8099 49.6463 15.4448 49.6768 17.0774 49.6354C19.2012 49.5809 20.8753 47.819 20.8688 45.7104C20.8601 43.604 19.1772 41.8509 17.0469 41.8204C14.4364 41.7833 11.8259 41.8116 9.16298 41.8116C9.16298 40.9351 9.16298 40.1086 9.16298 39.195C10.012 39.195 10.848 39.195 11.684 39.195C13.4542 39.195 15.2243 39.2168 16.9945 39.1863C19.1728 39.1492 20.8753 37.4004 20.871 35.2613C20.8644 33.1222 19.1532 31.3865 16.9705 31.3626C14.3818 31.3364 11.7997 31.356 9.13897 31.356Z" fill="#FFBB41"/>
<path d="M2.52975 26.0966C1.66977 26.0966 0.864351 26.0966 0.00654984 26.0966C0.00654984 25.2528 0.00654984 24.4307 0.00654984 23.5607C0.842524 23.5607 1.66758 23.5607 2.52975 23.5607C2.52975 24.4002 2.52975 25.2048 2.52975 26.0966Z" fill="#FFBB41"/>
<path d="M7.76168 23.5585C7.76168 24.4067 7.76168 25.2091 7.76168 26.0704C6.93226 26.0704 6.1072 26.0704 5.23412 26.0704C5.23412 25.2462 5.23412 24.4241 5.23412 23.5585C6.05918 23.5585 6.86241 23.5585 7.76168 23.5585Z" fill="#FFBB41"/>
<path d="M10.442 26.066C10.442 25.22 10.442 24.4175 10.442 23.5649C11.2955 23.5649 12.1183 23.5649 12.9849 23.5649C12.9849 24.3957 12.9849 25.1982 12.9849 26.066C12.1729 26.066 11.3479 26.066 10.442 26.066Z" fill="#FFBB41"/>
<path d="M0 54.9078C0.840339 54.9078 1.64357 54.9078 2.50792 54.9078C2.50792 55.7299 2.50792 56.552 2.50792 57.4285C1.69159 57.4285 0.868715 57.4285 0 57.4285C0 56.613 0 55.8084 0 54.9078Z" fill="#FFBB41"/>
<path d="M7.74204 57.4438C6.87114 57.4438 6.06572 57.4438 5.2232 57.4438C5.2232 56.6022 5.2232 55.7976 5.2232 54.9319C6.03953 54.9319 6.86241 54.9319 7.74204 54.9319C7.74204 55.7409 7.74204 56.5629 7.74204 57.4438Z" fill="#FFBB41"/>
<path d="M10.4464 57.4394C10.4464 56.5912 10.4464 55.7888 10.4464 54.9275C11.2758 54.9275 12.1009 54.9275 12.974 54.9275C12.974 55.7517 12.974 56.5738 12.974 57.4394C12.1489 57.4394 11.3457 57.4394 10.4464 57.4394Z" fill="#FFBB41"/>
<path d="M20.8688 23.517C20.8688 20.3247 20.8688 17.2524 20.8688 14.18C20.8688 11.7029 20.8622 9.22803 20.871 6.75095C20.8797 4.26515 22.532 2.61667 25.0312 2.61667C37.9375 2.61231 50.846 2.61231 63.7523 2.61667C66.2973 2.61667 67.9256 4.25861 67.9256 6.82073C67.9278 29.2714 67.9278 51.7243 67.9256 74.175C67.9256 76.7633 66.2864 78.3834 63.6715 78.3834C50.8198 78.3856 37.9659 78.3856 25.1141 78.3834C22.5036 78.3834 20.8732 76.7611 20.871 74.1663C20.8666 68.8589 20.8688 63.5536 20.8688 58.2462C20.8688 58.0304 20.8688 57.8167 20.8688 57.4831C21.194 57.4831 21.4821 57.4831 21.7681 57.4831C25.3084 57.4831 28.8487 57.4896 32.3869 57.4809C40.9649 57.4634 47.8513 51.7047 49.4032 43.2595C51.0184 34.4698 44.7934 25.4642 35.9556 23.8572C34.7835 23.6435 33.5787 23.5432 32.3869 23.5301C28.8749 23.4887 25.3608 23.5148 21.8488 23.5148C21.5563 23.517 21.2617 23.517 20.8688 23.517ZM40.4585 5.23985C35.5256 5.23985 30.6626 5.21368 25.7995 5.25947C24.6427 5.27037 23.5819 6.30612 23.5273 7.46398C23.4422 9.29998 23.5055 11.1447 23.5055 13.0178C24.3851 13.0178 25.2102 13.0178 26.1226 13.0178C26.1226 11.2755 26.1226 9.57909 26.1226 7.79978C30.955 7.79978 35.6981 7.79978 40.4585 7.79978C40.4585 6.92757 40.4585 6.14258 40.4585 5.23985ZM65.3129 60.1433C64.3722 60.1433 63.5668 60.1433 62.6762 60.1433C62.6762 64.4956 62.6762 68.8022 62.6762 73.1937C60.8951 73.1937 59.1992 73.1937 57.512 73.1937C57.512 74.0878 57.512 74.8924 57.512 75.7711C59.1512 75.7711 60.7489 75.7733 62.3466 75.7711C64.2849 75.7668 65.3086 74.7419 65.3107 72.7947C65.3151 68.8261 65.3107 64.8576 65.3107 60.8869C65.3129 60.6514 65.3129 60.4137 65.3129 60.1433ZM45.6446 7.80632C45.6446 6.90795 45.6446 6.08371 45.6446 5.26601C44.7781 5.26601 43.9749 5.26601 43.1367 5.26601C43.1367 6.12732 43.1367 6.95156 43.1367 7.80632C43.9879 7.80632 44.7912 7.80632 45.6446 7.80632ZM65.2496 52.2258C65.2496 51.3209 65.2496 50.4967 65.2496 49.6855C64.3809 49.6855 63.5777 49.6855 62.7461 49.6855C62.7461 50.5512 62.7461 51.3732 62.7461 52.2258C63.5995 52.2258 64.4027 52.2258 65.2496 52.2258ZM65.2736 54.9166C64.3722 54.9166 63.5668 54.9166 62.7504 54.9166C62.7504 55.7866 62.7504 56.6087 62.7504 57.4242C63.6279 57.4242 64.4529 57.4242 65.2736 57.4242C65.2736 56.5585 65.2736 55.7539 65.2736 54.9166ZM23.5382 60.1346C23.5382 61.0133 23.5382 61.8376 23.5382 62.6465C24.4179 62.6465 25.2429 62.6465 26.0571 62.6465C26.0571 61.7809 26.0571 60.9763 26.0571 60.1346C25.2145 60.1346 24.4091 60.1346 23.5382 60.1346ZM23.5208 67.8907C24.42 67.8907 25.2255 67.8907 26.0483 67.8907C26.0483 67.0229 26.0483 66.2008 26.0483 65.3787C25.1731 65.3787 24.3502 65.3787 23.5208 65.3787C23.5208 66.2422 23.5208 67.0447 23.5208 67.8907ZM23.5273 70.5815C23.5273 71.4799 23.5273 72.2823 23.5273 73.1087C24.3939 73.1087 25.2167 73.1087 26.0418 73.1087C26.0418 72.2343 26.0418 71.4123 26.0418 70.5815C25.1774 70.5815 24.3742 70.5815 23.5273 70.5815Z" fill="white"/>
<path d="M69.2418 2.62097C71.1648 2.62097 72.9349 2.57518 74.7007 2.63405C76.6455 2.69947 78.2323 4.31088 78.3698 6.25155C78.3917 6.55028 78.3829 6.84901 78.3829 7.14992C78.3829 29.3804 78.3829 51.6087 78.3829 73.8391C78.3829 76.8875 76.8769 78.3855 73.8145 78.3855C72.3456 78.3855 70.8766 78.3855 69.3269 78.3855C69.4033 78.198 69.4404 78.0563 69.5146 77.9363C70.2371 76.7719 70.5471 75.5072 70.5449 74.1357C70.5361 51.7155 70.5361 29.2953 70.547 6.87518C70.5492 5.35971 70.1454 3.99252 69.2418 2.62097Z" fill="white"/>
<path d="M28.7462 49.6266C28.7462 43.5277 28.7462 37.5007 28.7462 31.393C32.1403 31.1292 35.0454 32.1104 37.1605 34.8339C39.5505 37.9128 39.8954 41.3275 38.0685 44.7662C36.1324 48.4099 32.8867 49.8447 28.7462 49.6266Z" fill="white"/>
<path d="M40.4585 5.23982C40.4585 6.14037 40.4585 6.92754 40.4585 7.79757C35.7002 7.79757 30.9551 7.79757 26.1226 7.79757C26.1226 9.5747 26.1226 11.2711 26.1226 13.0156C25.2102 13.0156 24.3851 13.0156 23.5055 13.0156C23.5055 11.1425 23.4422 9.29995 23.5273 7.46177C23.5819 6.30391 24.6427 5.26816 25.7995 5.25726C30.6648 5.21583 35.5278 5.23982 40.4585 5.23982Z" fill="#FFBB41"/>
<path d="M65.3129 60.1433C65.3129 60.4137 65.3129 60.6514 65.3129 60.889C65.3129 64.8576 65.3151 68.8262 65.3129 72.7969C65.3107 74.7419 64.2871 75.7668 62.3488 75.7733C60.7511 75.7777 59.1534 75.7733 57.5141 75.7733C57.5141 74.8945 57.5141 74.0899 57.5141 73.1959C59.2014 73.1959 60.8973 73.1959 62.6784 73.1959C62.6784 68.8043 62.6784 64.4978 62.6784 60.1455C63.5646 60.1433 64.37 60.1433 65.3129 60.1433Z" fill="#FFBB41"/>
<path d="M45.6446 7.8063C44.7912 7.8063 43.988 7.8063 43.1367 7.8063C43.1367 6.95154 43.1367 6.1273 43.1367 5.26599C43.9749 5.26599 44.7781 5.26599 45.6446 5.26599C45.6446 6.08369 45.6446 6.90793 45.6446 7.8063Z" fill="#FFBB41"/>
<path d="M65.2496 52.2259C64.4027 52.2259 63.5995 52.2259 62.7461 52.2259C62.7461 51.3733 62.7461 50.5512 62.7461 49.6855C63.5755 49.6855 64.3809 49.6855 65.2496 49.6855C65.2496 50.4967 65.2496 51.3209 65.2496 52.2259Z" fill="#FFBB41"/>
<path d="M65.2736 54.9166C65.2736 55.7561 65.2736 56.5586 65.2736 57.4242C64.4529 57.4242 63.6279 57.4242 62.7504 57.4242C62.7504 56.6087 62.7504 55.7867 62.7504 54.9166C63.5668 54.9166 64.3722 54.9166 65.2736 54.9166Z" fill="#FFBB41"/>
<path d="M23.5382 60.1346C24.4091 60.1346 25.2146 60.1346 26.0571 60.1346C26.0571 60.9763 26.0571 61.7809 26.0571 62.6466C25.2407 62.6466 24.4179 62.6466 23.5382 62.6466C23.5382 61.8376 23.5382 61.0134 23.5382 60.1346Z" fill="#FFBB41"/>
<path d="M23.5208 67.8907C23.5208 67.0447 23.5208 66.2423 23.5208 65.3788C24.348 65.3788 25.1731 65.3788 26.0483 65.3788C26.0483 66.2008 26.0483 67.0229 26.0483 67.8907C25.2233 67.8907 24.4201 67.8907 23.5208 67.8907Z" fill="#FFBB41"/>
<path d="M23.5273 70.5815C24.3742 70.5815 25.1796 70.5815 26.0418 70.5815C26.0418 71.4123 26.0418 72.2344 26.0418 73.1088C25.2189 73.1088 24.3939 73.1088 23.5273 73.1088C23.5273 72.2845 23.5273 71.4799 23.5273 70.5815Z" fill="#FFBB41"/>
</g>
<defs>
<clipPath id="clip0_2_161">
<rect width="81" height="81" fill="white"/>
</clipPath>
</defs>
</svg>
