<svg width="98" height="81" viewBox="0 0 98 81" fill="none" xmlns="http://www.w3.org/2000/svg">
<path d="M92.595 11.6005C93.6014 11.6016 94.588 11.3212 95.4435 10.791C96.2991 10.2607 96.9895 9.5016 97.437 8.5994C97.8844 7.69721 98.071 6.6878 97.9758 5.68508C97.8805 4.68236 97.5071 3.72626 96.8978 2.92465C96.2885 2.12304 95.4674 1.50785 94.5274 1.14848C93.5873 0.789122 92.5656 0.699895 91.5775 0.890875C90.5894 1.08186 89.6744 1.54544 88.9356 2.22931C88.1967 2.91319 87.6636 3.79013 87.3963 4.76118H55.1893V1.43632C55.1891 1.05545 55.0379 0.690242 54.7688 0.420928C54.4997 0.151614 54.1349 0.000217452 53.7543 0H44.2424C43.8619 0.000217452 43.497 0.151614 43.2279 0.420928C42.9589 0.690242 42.8076 1.05545 42.8074 1.43632V5.00823H10.6636C10.376 3.73302 9.63631 2.60541 8.58154 1.83443C7.52678 1.06345 6.2285 0.701393 4.9274 0.815371C3.62629 0.92935 2.41059 1.51163 1.50566 2.45428C0.600726 3.39694 0.0679413 4.63602 0.00606521 5.94184C-0.0558109 7.24766 0.357419 8.53165 1.16915 9.55579C1.98089 10.5799 3.13607 11.2748 4.42056 11.5115C5.70505 11.7482 7.03173 11.5108 8.15467 10.8432C9.2776 10.1756 10.1206 9.1231 10.5275 7.88086H31.9359C17.914 13.2157 7.64766 24.9221 5.27541 39.2426H1.43866C1.05814 39.2428 0.693269 39.3942 0.424203 39.6635C0.155137 39.9328 0.0038817 40.2981 0.00366445 40.6789V50.1996C0.00366445 50.5806 0.154851 50.9459 0.423964 51.2153C0.693077 51.4846 1.05807 51.636 1.43866 51.636H10.9506C11.3312 51.636 11.6962 51.4846 11.9653 51.2153C12.2344 50.9459 12.3856 50.5806 12.3856 50.1996V40.6789C12.3854 40.2981 12.2341 39.9328 11.9651 39.6635C11.696 39.3942 11.3311 39.2428 10.9506 39.2426H8.17902C11.0908 23.018 25.0012 10.4876 42.8074 8.06389V10.957C42.8074 11.338 42.9586 11.7033 43.2277 11.9727C43.4968 12.242 43.8618 12.3934 44.2424 12.3934H46.3129L24.5773 44.9321C24.4374 45.1418 24.3551 45.3848 24.3386 45.6365C24.3222 45.8881 24.3723 46.1397 24.4838 46.3659L34.4205 66.5228C32.556 68.1581 31.0637 70.1747 30.0443 72.4366C29.025 74.6985 28.5023 77.1529 28.5116 79.6343C28.5299 80.0025 28.6889 80.3496 28.9557 80.6038C29.2225 80.858 29.5766 80.9998 29.945 81H68.0518C68.4202 81 68.7745 80.8582 69.0413 80.604C69.3081 80.3498 69.467 80.0026 69.4851 79.6343C69.4944 77.1529 68.9717 74.6985 67.9524 72.4366C66.9331 70.1747 65.4408 68.1581 63.5762 66.5228L73.5162 46.3618C73.6277 46.1356 73.6778 45.884 73.6614 45.6323C73.645 45.3807 73.5627 45.1377 73.4227 44.928L51.6839 12.3934H53.7543C54.1349 12.3934 54.4999 12.242 54.769 11.9727C55.0381 11.7033 55.1893 11.338 55.1893 10.957V8.06389C72.9955 10.4876 86.9059 23.0204 89.8177 39.2426H87.0461C86.6656 39.2428 86.3008 39.3942 86.0317 39.6635C85.7626 39.9328 85.6114 40.2981 85.6112 40.6789V50.1996C85.6112 50.5806 85.7623 50.9459 86.0314 51.2153C86.3006 51.4846 86.6656 51.636 87.0461 51.636H96.5581C96.9387 51.636 97.3037 51.4846 97.5728 51.2153C97.8419 50.9459 97.9931 50.5806 97.9931 50.1996V40.6789C97.9929 40.2981 97.8416 39.9328 97.5725 39.6635C97.3035 39.3942 96.9386 39.2428 96.5581 39.2426H92.7213C90.3122 24.6964 79.7588 12.8464 65.3983 7.63381H87.3979C87.7125 8.7724 88.3908 9.77659 89.3293 10.4929C90.2678 11.2092 91.4148 11.5982 92.595 11.6005ZM9.51561 48.7633H2.87365V42.1152H9.51561V48.7633ZM95.1231 48.7633H88.4811V42.1152H95.1231V48.7633ZM92.595 3.6663C93.0952 3.6663 93.5841 3.81475 94 4.09288C94.4159 4.37102 94.74 4.76633 94.9314 5.22885C95.1228 5.69137 95.1729 6.20031 95.0753 6.69131C94.9777 7.18231 94.7369 7.63333 94.3832 7.98732C94.0296 8.34132 93.579 8.58239 93.0884 8.68006C92.5979 8.77773 92.0894 8.7276 91.6273 8.53602C91.1652 8.34444 90.7702 8.02001 90.4924 7.60376C90.2145 7.1875 90.0662 6.69812 90.0662 6.1975C90.0668 5.52638 90.3335 4.88294 90.8076 4.40839C91.2817 3.93384 91.9246 3.66695 92.595 3.6663ZM5.40169 8.72787C4.90149 8.72787 4.41253 8.5794 3.99664 8.30123C3.58076 8.02307 3.25663 7.6277 3.06525 7.16513C2.87387 6.70257 2.82384 6.19359 2.92148 5.70256C3.01912 5.21154 3.26005 4.76052 3.6138 4.40656C3.96755 4.0526 4.41823 3.81159 4.90884 3.71401C5.39944 3.61644 5.90794 3.66668 6.37001 3.85839C6.83209 4.0501 7.22699 4.37465 7.50476 4.79102C7.78254 5.20738 7.93072 5.69684 7.93056 6.1975C7.9299 6.86854 7.66324 7.51189 7.1891 7.98632C6.71496 8.46074 6.07211 8.72744 5.40169 8.72787ZM48.9984 40.7331C49.9283 40.7331 50.8373 41.0091 51.6105 41.5262C52.3837 42.0433 52.9863 42.7782 53.3422 43.6381C53.6981 44.498 53.7913 45.4442 53.6099 46.3571C53.4286 47.27 52.9809 48.1086 52.3234 48.7668C51.6659 49.425 50.8282 49.8733 49.9162 50.0549C49.0041 50.2366 48.0588 50.1435 47.1996 49.7875C46.3404 49.4314 45.6061 48.8283 45.0893 48.0545C44.5726 47.2807 44.2967 46.3709 44.2965 45.4401C44.2976 44.1922 44.7933 42.9957 45.6748 42.1132C46.5563 41.2308 47.7516 40.7344 48.9984 40.7331ZM66.5594 78.1274H31.4447C31.631 76.2301 32.1912 74.3887 33.093 72.7096C33.9948 71.0304 35.2202 69.5469 36.6984 68.3448H61.2983C62.7825 69.542 64.0125 71.0242 64.916 72.7042C65.8195 74.3842 66.3783 76.2281 66.5594 78.1274ZM60.894 65.4722H37.1027L27.4235 45.8349L47.5634 15.6895V38.0016C45.7141 38.3589 44.0643 39.3932 42.9359 40.9025C41.8075 42.4119 41.2816 44.288 41.4609 46.1645C41.6402 48.0411 42.5118 49.7835 43.9055 51.0514C45.2992 52.3194 47.115 53.0219 48.9984 53.0219C50.8818 53.0219 52.6976 52.3194 54.0913 51.0514C55.485 49.7835 56.3565 48.0411 56.5358 46.1645C56.7151 44.288 56.1892 42.4119 55.0609 40.9025C53.9325 39.3932 52.2826 38.3589 50.4334 38.0016V15.6895L70.5733 45.8349L60.894 65.4722ZM52.3194 9.52072H45.6774V2.87263H52.3194V9.52072Z" fill="#6A4DF4"/>
</svg>
