<svg width="100" height="81" viewBox="0 0 100 81" fill="none" xmlns="http://www.w3.org/2000/svg">
<path d="M91.032 0H8.46794C6.33368 0.00240381 4.28753 0.851299 2.77838 2.36045C1.26924 3.86959 0.420342 5.91575 0.417938 8.05V71.6244C0.420561 73.9775 1.35651 76.2336 3.02045 77.8975C4.68439 79.5614 6.94042 80.4974 9.29358 80.5H90.2064C92.5596 80.4974 94.8156 79.5614 96.4795 77.8975C98.1435 76.2336 99.0794 73.9775 99.082 71.6244V8.05C99.0796 5.91575 98.2307 3.86959 96.7216 2.36045C95.2124 0.851299 93.1663 0.00240381 91.032 0ZM96.1923 8.05V17.696H40.5755L47.5786 2.88974H91.032C92.4002 2.89127 93.7118 3.43543 94.6792 4.40284C95.6466 5.37024 96.1908 6.68188 96.1923 8.05ZM8.46794 2.88974H44.3833L37.3786 17.696H3.30768V8.05C3.30921 6.68188 3.85337 5.37024 4.82078 4.40284C5.78818 3.43543 7.09982 2.89127 8.46794 2.88974ZM20.8104 62.2946L14.3605 55.7217L19.2401 49.6293L27.0762 54.4865C27.3362 54.6478 27.6406 54.7223 27.9457 54.6995C28.2508 54.6766 28.5407 54.5575 28.7738 54.3594C33.0158 50.7519 38.1166 48.2994 43.5833 47.239C43.8839 47.181 44.1584 47.0289 44.3672 46.8049C44.5759 46.5809 44.7082 46.2964 44.745 45.9923L45.8455 36.8484H53.6544L54.7559 45.9956C54.7923 46.2996 54.9244 46.5842 55.133 46.8083C55.3417 47.0323 55.6161 47.1843 55.9167 47.2424C61.3834 48.3027 66.4842 50.7552 70.7262 54.3627C70.9594 54.5606 71.2493 54.6795 71.5543 54.7024C71.8593 54.7252 72.1637 54.6508 72.4237 54.4898L80.2599 49.6326L85.1394 55.725L78.6895 62.2946C78.4755 62.5128 78.3362 62.7932 78.2917 63.0956C78.2472 63.398 78.2998 63.7067 78.4418 63.9773C80.6633 68.1925 81.9181 72.8496 82.1151 77.6103H72.0646C71.6994 71.9403 69.1896 66.6221 65.0449 62.7358C60.9003 58.8495 55.4317 56.6866 49.75 56.6866C44.0683 56.6866 38.5997 58.8495 34.4551 62.7358C30.3104 66.6221 27.8006 71.9403 27.4354 77.6103H17.3849C17.5826 72.8506 18.8377 68.1947 21.059 63.9806C21.2017 63.7095 21.2546 63.4001 21.2099 63.097C21.1652 62.794 21.0253 62.5129 20.8104 62.2946ZM69.1674 77.6103H30.3326C30.6945 72.7079 32.8973 68.1239 36.4989 64.7784C40.1005 61.4328 44.8343 59.5735 49.75 59.5735C54.6657 59.5735 59.3994 61.4328 63.001 64.7784C66.6026 68.1239 68.8055 72.7079 69.1674 77.6103ZM90.2064 77.6103H85.0049C84.8219 72.7392 83.6201 67.9606 81.4769 63.5826L88.0994 56.8338C88.3469 56.5817 88.4934 56.2477 88.5112 55.8948C88.529 55.542 88.4169 55.1949 88.196 54.9192L81.7147 46.8279C81.4941 46.552 81.18 46.3665 80.8319 46.3066C80.4838 46.2466 80.1258 46.3164 79.8256 46.5026L71.7814 51.4886C67.6022 48.1467 62.7179 45.7986 57.4978 44.6218L56.37 35.2309C56.3276 34.8801 56.1582 34.557 55.8938 34.3226C55.6294 34.0882 55.2884 33.9587 54.935 33.9586H44.565C44.2116 33.9587 43.8705 34.0882 43.6061 34.3226C43.3418 34.557 43.1724 34.8801 43.13 35.2309L41.9997 44.6209C36.7796 45.7977 31.8953 48.1459 27.7161 51.4878L19.6719 46.5018C19.3717 46.3155 19.0137 46.2458 18.6656 46.3058C18.3175 46.3657 18.0034 46.5512 17.7828 46.8271L11.3015 54.9183C11.0806 55.194 10.9685 55.5412 10.9863 55.894C11.0041 56.2469 11.1506 56.5809 11.3981 56.833L18.0206 63.5818C15.8782 67.9603 14.6772 72.7391 14.4951 77.6103H9.29358C7.70656 77.6085 6.18504 76.9773 5.06284 75.8551C3.94065 74.7329 3.30943 73.2114 3.30768 71.6244V20.5857H96.1923V71.6244C96.1906 73.2114 95.5593 74.7329 94.4371 75.8551C93.3149 76.9773 91.7934 77.6085 90.2064 77.6103Z" fill="#FA6444"/>
</svg>
